<svg width="30" height="30" viewBox="0 0 30 30" fill="none" xmlns="http://www.w3.org/2000/svg">
<path d="M13.3447 0.978886C12.3107 1.25952 11.4194 1.72175 7.37268 4.0824C4.50256 5.76622 3.57556 6.52559 2.7377 7.91227C1.68591 9.64562 1.57895 10.339 1.57895 15.4234C1.57895 20.2933 1.65026 20.8216 2.5416 22.5549C3.34381 24.1232 4.68082 25.1962 8.49577 27.3753C12.7564 29.802 13.2912 30.0001 15.3948 30.0001C17.5162 30.0001 18.1758 29.7524 22.2581 27.3918C26.18 25.1302 26.804 24.668 27.7666 23.3308C29.0858 21.4984 29.2106 20.8546 29.2106 15.4399C29.2106 10.3555 29.1393 9.8107 28.2301 8.1764C27.3744 6.60814 26.2335 5.68368 22.4542 3.50462C20.5289 2.39858 18.568 1.35857 18.0688 1.17698C16.8566 0.747772 14.6104 0.665232 13.3447 0.978886Z" fill="#93D39B"/>
<path d="M13.2592 18.0592L10.5197 15.3198C10.2118 15.0119 9.71448 15.0119 9.40658 15.3198C9.09869 15.6277 9.09869 16.125 9.40658 16.4329L12.7066 19.7329C13.0145 20.0408 13.5119 20.0408 13.8198 19.7329L22.1724 11.3803C22.4803 11.0724 22.4803 10.575 22.1724 10.2671C21.8645 9.95922 21.3671 9.95922 21.0592 10.2671L13.2592 18.0592Z" fill="black"/>
</svg>
