<svg width="24" height="24" viewBox="0 0 24 24" fill="none" xmlns="http://www.w3.org/2000/svg">
<path d="M9.51928 15.6153C7.8116 15.6153 6.36546 15.023 5.18086 13.8384C3.99624 12.6538 3.40393 11.2077 3.40393 9.49999C3.40393 7.79231 3.99624 6.34616 5.18086 5.16154C6.36546 3.97694 7.8116 3.38464 9.51928 3.38464C11.227 3.38464 12.6731 3.97694 13.8577 5.16154C15.0423 6.34616 15.6347 7.79231 15.6347 9.49999C15.6347 10.2141 15.5148 10.8961 15.275 11.5461C15.0353 12.1961 14.7154 12.7615 14.3154 13.2423L20.0693 18.9961C20.2077 19.1346 20.2786 19.3087 20.2818 19.5183C20.285 19.7279 20.2141 19.9051 20.0693 20.05C19.9244 20.1948 19.7488 20.2673 19.5424 20.2673C19.336 20.2673 19.1603 20.1948 19.0155 20.05L13.2616 14.2961C12.7616 14.7089 12.1866 15.032 11.5366 15.2653C10.8866 15.4987 10.2141 15.6153 9.51928 15.6153ZM9.51928 14.1154C10.8077 14.1154 11.8991 13.6683 12.7933 12.774C13.6876 11.8798 14.1347 10.7885 14.1347 9.49999C14.1347 8.21153 13.6876 7.12018 12.7933 6.22594C11.8991 5.33171 10.8077 4.88459 9.51928 4.88459C8.23081 4.88459 7.13946 5.33171 6.24523 6.22594C5.35101 7.12018 4.90391 8.21153 4.90391 9.49999C4.90391 10.7885 5.35101 11.8798 6.24523 12.774C7.13946 13.6683 8.23081 14.1154 9.51928 14.1154Z" fill="#565656"/>
</svg>
